<?xml version="1.0" encoding="iso-8859-1"?>
<!-- Generator: Adobe Illustrator 19.0.0, SVG Export Plug-In . SVG Version: 6.00 Build 0)  -->
<svg version="1.1" id="Layer_1" xmlns="http://www.w3.org/2000/svg" xmlns:xlink="http://www.w3.org/1999/xlink" x="0px" y="0px"
	 viewBox="0 0 512 512" style="enable-background:new 0 0 512 512;" xml:space="preserve">
<g>
	<g>
		<g>
			<path d="M297.967,338.808l-13.09-10.249c-2.065-1.621-3.277-4.096-3.277-6.716V204.801c0-14.114-11.486-25.6-25.6-25.6
				c-14.114,0-25.6,11.486-25.6,25.6v117.043c0,2.62-1.212,5.094-3.277,6.716l-13.09,10.249c-16.717,13.082-26.3,32.666-26.3,53.726
				c0,37.641,30.626,68.267,68.267,68.267c37.641,0,68.267-30.626,68.267-68.267C324.267,371.474,314.684,351.89,297.967,338.808z"
				/>
			<path d="M332.8,301.15V76.8C332.8,34.449,298.351,0,256,0s-76.8,34.449-76.8,76.8v224.35
				c-27.179,22.81-42.667,55.876-42.667,91.383C136.533,458.411,190.123,512,256,512s119.467-53.589,119.467-119.467
				C375.467,357.026,359.979,323.959,332.8,301.15z M256,477.867c-47.053,0-85.333-38.281-85.333-85.333
				c0-26.342,11.972-50.816,32.853-67.157l9.813-7.689V204.8c0-23.526,19.14-42.667,42.667-42.667s42.667,19.14,42.667,42.667
				v112.888l9.813,7.689c20.881,16.341,32.853,40.815,32.853,67.157C341.333,439.586,303.053,477.867,256,477.867z"/>
		</g>
	</g>
</g>
<g>
</g>
<g>
</g>
<g>
</g>
<g>
</g>
<g>
</g>
<g>
</g>
<g>
</g>
<g>
</g>
<g>
</g>
<g>
</g>
<g>
</g>
<g>
</g>
<g>
</g>
<g>
</g>
<g>
</g>
</svg>
